<?xml version="1.0" standalone="no"?>
<!DOCTYPE svg PUBLIC "-//W3C//DTD SVG 20010904//EN"
 "http://www.w3.org/TR/2001/REC-SVG-20010904/DTD/svg10.dtd">
<svg version="1.0" xmlns="http://www.w3.org/2000/svg"
 width="512.000000pt" height="512.000000pt" viewBox="0 0 512.000000 512.000000"
 preserveAspectRatio="xMidYMid meet">

<g transform="translate(0.000000,512.000000) scale(0.100000,-0.100000)"
fill="#000000" stroke="none">
<path d="M2265 5095 c-23 -22 -25 -32 -25 -115 l0 -90 -89 0 c-141 0 -131 36
-131 -475 l0 -423 -447 -257 c-247 -142 -462 -272 -480 -288 -44 -41 -63 -85
-63 -145 0 -66 13 -99 58 -145 42 -43 118 -71 169 -61 l33 6 0 -477 c0 -529 0
-525 65 -565 32 -20 46 -20 1261 -20 676 0 1234 4 1240 8 33 22 34 42 34 1160
0 1107 0 1109 -21 1136 -13 17 -30 26 -47 26 -15 0 -124 -47 -242 -104 l-215
-103 -5 343 c-6 412 3 384 -132 384 l-88 0 0 90 c0 83 -2 93 -25 115 l-24 25
-401 0 -401 0 -24 -25z m725 -155 l0 -40 -300 0 -300 0 0 40 0 40 300 0 300 0
0 -40z m760 -1755 l0 -1005 -425 0 -425 0 0 458 0 458 33 -4 c79 -9 168 42
208 119 37 74 16 183 -47 240 -16 14 -66 47 -112 74 l-83 47 3 106 3 106 420
202 c231 112 421 203 423 203 1 1 2 -451 2 -1004z m-1147 78 l147 -85 0 -499
0 -499 -170 0 -170 0 0 312 c0 306 0 312 -22 335 -21 23 -22 23 -290 23 -157
0 -277 -4 -288 -10 -35 -19 -40 -64 -40 -366 l0 -294 -170 0 -170 0 0 498 0
497 332 191 331 191 181 -105 c100 -57 247 -142 329 -189z"/>
<path d="M526 3011 c-106 -43 -145 -110 -146 -247 0 -157 69 -1447 81 -1496
14 -62 73 -152 136 -209 28 -25 159 -123 291 -217 132 -95 244 -178 249 -185
8 -10 44 -127 47 -150 1 -5 -21 -16 -49 -25 -77 -26 -78 -37 -20 -254 48 -184
69 -228 106 -228 23 0 1175 308 1216 325 20 8 35 23 38 38 4 15 -13 98 -44
213 -58 212 -69 231 -131 218 -77 -15 -67 -34 -135 252 -80 332 -117 419 -206
487 -59 44 -652 390 -704 410 -38 14 -69 18 -128 15 -71 -3 -78 -1 -83 17 -2
11 -47 222 -99 470 -105 496 -107 502 -191 551 -62 36 -158 43 -228 15z m148
-131 c15 -5 31 -20 37 -32 5 -13 54 -234 109 -492 l99 -470 -31 -35 c-102
-116 -95 -297 16 -387 19 -16 129 -84 245 -151 238 -140 267 -148 300 -85 26
50 4 70 -212 197 -250 146 -264 156 -276 202 -30 107 72 202 203 191 44 -4 90
-28 361 -187 171 -100 325 -194 344 -209 64 -51 87 -110 157 -402 36 -150 63
-275 60 -277 -10 -11 -755 -208 -760 -202 -2 2 -16 49 -32 104 l-29 100 -273
196 c-150 108 -289 212 -308 230 -67 64 -85 108 -94 227 -20 254 -73 1400 -66
1425 13 51 89 81 150 57z m1618 -2341 c19 -72 23 -101 15 -104 -7 -3 -106 -30
-222 -61 -115 -30 -343 -91 -505 -134 -162 -44 -296 -78 -297 -76 -2 2 -15 45
-29 96 -17 66 -21 96 -13 100 6 4 149 44 317 89 169 45 395 106 502 136 107
29 197 53 201 54 3 0 17 -44 31 -100z"/>
<path d="M4409 3016 c-51 -18 -94 -51 -118 -90 -15 -23 -51 -175 -116 -482
-52 -247 -97 -458 -99 -469 -5 -18 -12 -20 -83 -17 -60 3 -90 -1 -128 -15 -52
-21 -646 -366 -703 -410 -50 -38 -98 -110 -127 -188 -14 -38 -52 -180 -84
-315 -64 -269 -54 -251 -131 -236 -62 13 -73 -6 -131 -218 -52 -194 -54 -227
-19 -246 24 -13 1205 -330 1229 -330 37 0 58 44 106 228 61 230 61 233 -62
268 -9 2 -6 23 9 76 11 40 25 78 30 85 5 7 119 90 251 185 133 95 264 193 291
218 66 60 123 150 135 213 12 55 81 1337 81 1489 0 101 -14 146 -62 196 -60
61 -184 88 -269 58z m148 -146 c19 -11 35 -31 39 -47 7 -25 -46 -1171 -66
-1425 -9 -120 -27 -163 -95 -228 -20 -19 -158 -123 -308 -230 l-272 -195 -29
-103 c-17 -56 -35 -102 -40 -102 -16 0 -747 197 -752 203 -3 3 24 127 60 277
70 292 93 351 157 401 19 15 174 110 344 210 284 167 315 183 366 187 110 8
202 -62 202 -154 0 -29 -7 -54 -19 -71 -10 -14 -119 -84 -241 -156 -237 -140
-258 -159 -232 -209 34 -64 64 -55 303 86 248 146 268 162 303 229 50 98 32
220 -45 308 l-31 35 99 470 c55 258 104 479 110 492 19 43 94 55 147 22z
m-1182 -2370 c275 -73 504 -137 508 -140 7 -6 -35 -185 -45 -196 -3 -2 -986
257 -1025 271 -8 3 -4 33 15 105 15 55 31 99 37 97 5 -2 235 -64 510 -137z"/>
</g>
</svg>
